<?xml version="1.0" encoding="UTF-8" standalone="no"?>
<svg
   xmlns:dc="http://purl.org/dc/elements/1.1/"
   xmlns:cc="http://creativecommons.org/ns#"
   xmlns:rdf="http://www.w3.org/1999/02/22-rdf-syntax-ns#"
   xmlns:svg="http://www.w3.org/2000/svg"
   xmlns="http://www.w3.org/2000/svg"
   xmlns:xlink="http://www.w3.org/1999/xlink"
   xmlns:sodipodi="http://sodipodi.sourceforge.net/DTD/sodipodi-0.dtd"
   xmlns:inkscape="http://www.inkscape.org/namespaces/inkscape"
   viewBox="0 0 250 90"
   id="svg195"
   height="90"
   width="250"
   version="1.1"
   sodipodi:docname="logo.svg"
   inkscape:version="0.92.4 (f8dce91, 2019-08-02)">
  <sodipodi:namedview
     pagecolor="#ffffff"
     bordercolor="#666666"
     borderopacity="1"
     objecttolerance="10"
     gridtolerance="10"
     guidetolerance="10"
     inkscape:pageopacity="0"
     inkscape:pageshadow="2"
     inkscape:window-width="1301"
     inkscape:window-height="744"
     id="namedview919"
     showgrid="false"
     inkscape:zoom="0.30461206"
     inkscape:cx="1247.8452"
     inkscape:cy="41.214218"
     inkscape:window-x="65"
     inkscape:window-y="24"
     inkscape:window-maximized="1"
     inkscape:current-layer="svg195" />
  <metadata
     id="metadata201">
    <rdf:RDF>
      <cc:Work
         rdf:about="">
        <dc:format>image/svg+xml</dc:format>
        <dc:type
           rdf:resource="http://purl.org/dc/dcmitype/StillImage" />
        <dc:title></dc:title>
      </cc:Work>
    </rdf:RDF>
  </metadata>
  <defs
     id="defs199" />
  <g
     id="Layer1000"
     transform="matrix(0.06622544,0,0,0.06622544,182.93236,0.41572115)"
     style="fill:#ffffff">
    <defs
       id="defs140">
      <linearGradient
         id="grad1">
        <stop
           id="stop130"
           stop-opacity="1.0000"
           stop-color="#008b2c"
           offset="0.0000%" />
        <stop
           id="stop132"
           stop-opacity="1.0000"
           stop-color="#ffffff"
           offset="12.0000%" />
        <stop
           id="stop134"
           stop-opacity="1.0000"
           stop-color="#d6d6d6"
           offset="0.0000%" />
        <stop
           id="stop136"
           stop-opacity="1.0000"
           stop-color="#ffffff"
           offset="83886592.0000%" />
      </linearGradient>
      <linearGradient
         gradientUnits="userSpaceOnUse"
         gradientTransform="scale(0.93970849,1.0641598)"
         y2="1072.3409"
         x2="-2376.968"
         y1="-389.00397"
         x1="-2376.968"
         id="grad2"
         xlink:href="#grad1" />
    </defs>
    <defs
       id="defs154">
      <linearGradient
         id="grad3">
        <stop
           id="stop144"
           stop-opacity="1.0000"
           stop-color="#81b1b1"
           offset="0.0000%" />
        <stop
           id="stop146"
           stop-opacity="1.0000"
           stop-color="#ffffff"
           offset="12.0000%" />
        <stop
           id="stop148"
           stop-opacity="1.0000"
           stop-color="#d6d6d6"
           offset="0.0000%" />
        <stop
           id="stop150"
           stop-opacity="1.0000"
           stop-color="#ffffff"
           offset="83886592.0000%" />
      </linearGradient>
      <linearGradient
         gradientUnits="userSpaceOnUse"
         gradientTransform="scale(0.93713792,1.0670788)"
         y2="1079.12"
         x2="-1955.6118"
         y1="-723.44391"
         x1="-1955.6118"
         id="grad4"
         xlink:href="#grad3" />
    </defs>
    <defs
       id="defs168">
      <linearGradient
         id="grad5">
        <stop
           id="stop158"
           stop-opacity="1.0000"
           stop-color="#008b2c"
           offset="0.0000%" />
        <stop
           id="stop160"
           stop-opacity="1.0000"
           stop-color="#ffffff"
           offset="12.0000%" />
        <stop
           id="stop162"
           stop-opacity="1.0000"
           stop-color="#d6d6d6"
           offset="0.0000%" />
        <stop
           id="stop164"
           stop-opacity="1.0000"
           stop-color="#ffffff"
           offset="83886592.0000%" />
      </linearGradient>
      <linearGradient
         gradientUnits="userSpaceOnUse"
         gradientTransform="scale(0.99978181,1.0002182)"
         y2="861.32764"
         x2="-2361.9426"
         y1="285.74344"
         x1="-2361.9426"
         id="grad6"
         xlink:href="#grad5" />
    </defs>
    <defs
       id="defs182">
      <linearGradient
         id="grad7">
        <stop
           id="stop172"
           stop-opacity="1.0000"
           stop-color="#81b1b1"
           offset="0.0000%" />
        <stop
           id="stop174"
           stop-opacity="1.0000"
           stop-color="#ffffff"
           offset="12.0000%" />
        <stop
           id="stop176"
           stop-opacity="1.0000"
           stop-color="#d6d6d6"
           offset="0.0000%" />
        <stop
           id="stop178"
           stop-opacity="1.0000"
           stop-color="#ffffff"
           offset="83886592.0000%" />
      </linearGradient>
      <linearGradient
         gradientUnits="userSpaceOnUse"
         gradientTransform="scale(1.0000569,0.99994311)"
         y2="152.06516"
         x2="-805.97723"
         y1="-582.71362"
         x1="-805.97723"
         id="grad8"
         xlink:href="#grad7" />
    </defs>
    <g
       id="g1053"
       transform="matrix(0.66041603,0,0,0.66041603,-1179.8639,586.24435)">
      <path
         inkscape:connector-curvature="0"
         d="m 2504.0224,611.7417 c -7.156,-11.2985 -11.5411,-12.9855 -20.6417,-12.9855 -7.7012,0 -12.5628,4.0051 -12.5628,13.6595 v 16.6881 h -33.6637 v -15.0912 c 0,-23.5715 15.9003,-38.5017 49.0962,-38.5017 23.1465,0 37.0035,8.8044 46.2115,22.8203 7.3148,11.2599 11.5926,12.9491 20.7018,12.9491 7.6711,0 12.5305,-4.0824 12.5305,-13.6445 v -16.9779 h 33.711 v 14.956 c 0,23.9106 -15.8789,38.9116 -49.0898,38.9116 -23.1529,0 -37.1237,-8.8817 -46.293,-22.7838 z"
         style="fill:#ffffff;fill-rule:evenodd"
         id="path2" />
      <path
         inkscape:connector-curvature="0"
         d="M 425.0956,255.5419 C 402.9386,195.1493 380.2986,134.937 358.764,74.3233 338.5086,17.3134 319.951,-40.3018 299.642,-97.2945 c -10.6074,-29.751 -12.0454,-61.1052 -18.7936,-91.4915 -1.6184,-7.2783 -1.9447,-15.0311 -7.4265,-20.573 -7.7699,1.3694 -5.9133,6.7611 -5.5205,10.6825 12.1464,121.4613 8.3966,243.309 8.8281,365.0515 0.4164,118.6903 -0.3241,237.3957 0.4786,356.086 0.1138,17.4158 -5.0891,21.4123 -21.6333,21.0195 -49.1113,-1.1655 -98.2697,-1.0903 -147.396,-0.3928 -14.516,0.1954 -19.8755,-2.8632 -19.8304,-18.8859 0.8328,-298.0159 1.1355,-596.0317 1.0217,-894.0561 -0.0086,-15.0225 4.3915,-20.543 19.2637,-20.4142 66.3445,0.5988 132.689,0.689 199.0421,0.7791 20.4078,0.0322 40.8284,-1.0517 61.2276,-0.6589 25.7672,0.5087 32.4983,5.484 39.5555,29.7745 44.4708,153.2406 102.599,301.8407 153.5518,452.8705 18.9225,56.1149 39.9183,111.7296 48.8687,170.7765 1.0367,6.8598 3.7798,13.5007 6.1043,20.1029 0.7405,2.1357 2.6787,3.8549 5.1943,7.2934 7.3127,-11.9489 8.0338,-24.0501 10.6524,-35.3766 22.0347,-95.3227 58.6991,-185.9513 89.5383,-278.4215 38.1175,-114.2817 78.2268,-227.9002 117.4111,-341.8341 6.012,-17.4694 14.136,-27.7141 36.4884,-27.5466 82.9446,0.6203 165.8934,-1.3093 248.853,0.8242 24.8572,0.6439 26.1236,0.6224 26.2974,25.7007 0.5517,81.6396 0.5753,163.2878 0.3628,244.9295 -0.4314,163.2813 -1.2106,326.5691 -1.7257,489.8354 -0.1588,49.1413 -0.3026,98.2911 0.3713,147.4174 0.2404,17.8793 -5.2479,26.5335 -24.7606,27.7076 -56.7974,3.4149 -113.466,2.3396 -170.2248,-0.0923 -16.7654,-0.7104 -13.7368,-11.1912 -13.7218,-21.0645 0.4786,-181.2337 1.0152,-362.4759 1.4617,-543.7116 0.1223,-50.1566 0.0236,-100.3131 0.0236,-152.2339 -9.7682,4.0588 -10.7383,12.0175 -12.2666,18.8924 -20.1802,90.5921 -56.1621,176.063 -85.3893,263.7081 -32.2557,96.7544 -65.5353,193.161 -98.7526,289.5806 -14.9324,43.374 -30.9915,86.3444 -46.0763,129.6562 -3.4213,9.8046 -8.7894,13.9621 -19.3689,14.5438 -46.5742,2.5671 -93.0883,2.1958 -139.6411,-0.4078 -12.9341,-0.7276 -20.4442,-5.2844 -24.8057,-18.71 -14.591,-44.827 -33.3783,-88.2354 -45.7264,-133.8502 -14.7735,-45.091 -27.7591,-90.7939 -46.0827,-134.6744 z"
         style="fill:#ffffff;fill-rule:evenodd"
         id="path4" />
      <path
         inkscape:connector-curvature="0"
         d="m 3267.774,-274.9287 c 0,25.5162 0.039,51.0409 -0.015,76.5591 -0.03,19.5278 -2.4683,21.3222 -20.6267,12.4104 -30.369,-14.9173 -60.839,-29.6737 -93.5648,-38.5253 -72.3887,-19.5664 -144.5413,-25.3058 -214.9446,8.0854 -16.9156,8.0274 -31.9703,19.1049 -41.6912,35.5204 -17.4093,29.4182 -11.8802,61.0537 15.4539,90.7724 32.0819,34.8614 74.681,52.3372 116.8809,70.6458 64.9129,28.1691 129.6455,56.1535 186.269,100.4505 126.0889,98.6475 117.2523,310.0634 8.5405,397.2235 -47.5809,38.1475 -102.2427,60.0535 -161.1908,70.9485 -120.2872,22.2472 -238.75,13.9707 -354.663,-26.0849 -1.8158,-0.6289 -3.6488,-1.1891 -5.4346,-1.8481 -31.7642,-11.8566 -31.7878,-11.8566 -31.878,-46.2952 -0.1438,-51.0344 -0.3348,-102.0774 -0.2125,-153.1182 0,-5.2715 -3.3097,-12.3588 3.4686,-15.4539 5.308,-2.4383 9.2509,2.9663 13.4921,5.4732 33.4534,19.7338 65.0137,42.7666 101.6009,57.01 72.5089,28.272 146.5245,30.8541 221.6906,13.4019 14.3271,-3.3247 27.8428,-9.2294 40.1845,-17.4758 46.1729,-30.8563 47.3169,-95.6726 2.8697,-133.0238 -46.2716,-38.8816 -102.3585,-59.1305 -156.1188,-83.9362 -46.2952,-21.3522 -92.3629,-42.9404 -133.2428,-74.4235 -88.3427,-68.0337 -122.8329,-199.3705 -79.2099,-302.0231 31.8394,-74.9472 89.2807,-120.5813 163.6891,-148.0077 89.7293,-33.0735 182.3777,-33.3461 275.8159,-24.8744 41.3349,3.7412 82.277,9.223 121.7038,23.4063 15.1513,5.4432 22.7237,12.7945 21.3844,30.4678 -1.8416,24.1167 -0.4551,48.4695 -0.4551,72.7149 z"
         style="fill:#ffffff;fill-rule:evenodd"
         id="path6" />
      <path
         inkscape:connector-curvature="0"
         d="m 2397.8433,542.0789 c -54.8571,0 -109.7314,-0.4936 -164.5756,0.3177 -14.6898,0.2189 -20.2704,-2.9148 -19.7703,-18.8774 1.3093,-42.069 1.3565,-84.2066 0.6439,-126.2928 -0.2275,-13.7797 4.4817,-17.6947 17.4222,-17.2096 15.2736,0.5451 30.6288,-1.4617 45.8874,-0.8479 12.8117,0.5216 16.7031,-4.634 16.5979,-16.7889 -0.2211,-26.7739 0.5817,-53.5629 0.968,-80.3368 2.3181,-160.7378 2.9298,-321.4671 -1.3694,-482.1814 -0.7276,-27.2675 -1.1139,-27.2525 -27.7526,-27.4478 -50.7833,-0.3649 -50.7833,-0.3649 -50.7769,-51.0666 0,-31.2556 0.4916,-62.5283 -0.2489,-93.7624 -0.3027,-12.7215 4.224,-16.5292 16.6043,-16.5292 112.2684,0 224.5454,-0.3499 336.8159,-1.0839 10.4035,-0.0601 13.432,3.4685 13.402,13.153 -0.1438,44.651 -0.1589,89.3107 0.4164,133.9553 0.1438,10.9637 -3.9837,14.8487 -14.516,14.6598 -14.6662,-0.2726 -29.386,1.1419 -44.0007,0.2876 -13.8935,-0.8178 -18.4524,3.8077 -19.2551,18.1648 -3.1874,58.0015 -3.0135,116.0331 -3.1423,174.0476 -0.2962,132.0408 -0.8865,264.0794 2.2794,396.1116 0.3864,16.188 6.3833,18.8688 20.5044,18.5362 56.0182,-1.3394 56.0547,-0.9917 56.7974,55.3357 0.4078,29.9763 -0.075,59.9998 1.3865,89.9246 0.6955,14.3035 -3.1508,18.71 -17.8256,18.491 -55.486,-0.8328 -110.9892,-0.3412 -166.4923,-0.3412 z"
         style="fill:#ffffff;fill-rule:evenodd"
         id="path8" />
      <path
         inkscape:connector-curvature="0"
         d="m 195.9334,761.1703 c -41.85,64.0501 -46.0977,134.2044 -30.1072,206.1295 20.983,94.3697 111.7167,145.6381 210.1367,121.2875 35.8981,-8.8732 67.5422,-26.3275 97.9971,-46.6194 4.9968,-3.3333 9.7832,-10.9873 16.173,-7.9587 7.4672,3.5351 1.6055,11.4638 1.7493,17.362 0.2725,12.1163 -1.0754,24.2755 -0.44,36.3532 0.6288,11.7901 -3.8528,19.9678 -14.1511,24.6919 -88.523,40.6546 -179.0164,52.7236 -269.8189,10.146 -52.5261,-24.6319 -86.441,-67.2675 -102.4015,-124.52 -19.8024,-70.9935 -20.0364,-142.0794 3.4664,-210.8643 28.7057,-84.0028 92.5003,-129.2291 179.7355,-139.8064 63.2558,-7.6712 124.6487,1.3694 183.1503,27.9995 14.2047,6.467 22.8074,14.1532 21.1482,31.5066 -1.3243,13.8506 0.4701,28.0253 1.2943,42.0411 0.8113,13.9772 -4.2241,16.1193 -15.3316,8.4868 -24.6618,-16.9521 -49.2486,-33.7625 -77.9456,-43.887 -60.7811,-21.4509 -118.8578,-19.5191 -173.7836,16.9543 -12.2751,8.2227 -22.391,18.6412 -30.8713,30.6974 z"
         style="fill:#ffffff;fill-rule:evenodd"
         id="path10" />
      <path
         inkscape:connector-curvature="0"
         d="m 659.7075,1138.5828 c -26.7976,0 -53.6101,-0.3863 -80.4076,0.1739 -11.6677,0.2575 -17.0508,-3.4063 -14.4537,-15.514 0.2576,-1.2428 0.2425,-2.5457 0.3713,-3.8099 3.2475,-31.0902 -4.6727,-28.8258 31.7557,-29.0834 4.4666,-0.03 8.9503,-0.2962 13.3955,-0.024 14.795,0.9101 19.4204,-5.3981 19.3453,-20.4893 -0.5667,-112.3285 -0.1803,-224.6591 -0.1653,-336.9812 0,-29.8861 -1.848,-31.5968 -31.3865,-30.9314 -0.6439,0.015 -1.2792,0.009 -1.9167,0.015 -29.3774,0.5237 -39.7444,-14.151 -29.9462,-41.9702 2.6207,-7.4437 8.3666,-6.6109 14.0545,-6.6194 53.6014,-0.0666 107.2179,0.0386 160.828,-0.3392 9.8046,-0.0687 13.1294,3.3763 13.8699,13.1981 2.5005,32.9598 2.8933,32.9211 -30.2039,34.7842 -5.7308,0.3262 -11.5024,1.3629 -17.1796,0.9701 -11.0259,-0.7662 -14.2734,4.5053 -14.6297,14.765 -2.4232,70.7445 -1.9832,141.4805 -1.8544,212.2423 0.0815,47.847 1.2191,95.6254 1.7557,143.4424 0.1674,15.25 5.3316,20.8971 20.2403,19.0426 6.9135,-0.8564 14.1296,0.7641 21.0195,-0.1352 16.0678,-2.0992 20.9443,4.2477 20.3756,20.2618 -1.0604,30.0385 3.5286,27.5702 -27.8493,27.4178 -22.3438,-0.1138 -44.6747,-0.015 -67.0184,-0.015 z"
         style="fill:#ffffff;fill-rule:evenodd"
         id="path12" />
      <path
         inkscape:connector-curvature="0"
         d="m 402.5415,-587.1793 c 0.3627,44.6125 0.6739,89.2206 1.129,133.8266 0.0837,7.3964 -1.7644,12.3868 -10.4336,12.4469 -8.6263,0.0536 -12.8203,-3.3913 -12.7816,-12.4769 0.1588,-54.1789 0.1137,-108.362 0.0665,-162.5473 0,-6.1494 0.6074,-11.8888 8.3065,-12.5842 10.8885,-0.9702 20.8306,-1.539 28.1003,10.3649 22.2773,36.4132 45.6213,72.1762 68.5253,108.2031 6.7782,10.6611 13.4706,21.3672 20.0128,31.7492 6.9736,-1.2406 4.604,-5.8145 4.5889,-9.1457 -0.1738,-42.0711 -0.3777,-84.1337 -0.7727,-126.1941 -0.0837,-8.2464 -0.2489,-15.5762 11.2299,-15.4775 10.88,0.0751 11.8501,6.5572 11.8115,15.235 -0.249,50.9957 -0.0215,102.0001 -0.3477,152.983 -0.0451,6.8212 4.5353,16.892 -6.6173,19.1414 -9.9055,1.9832 -19.9441,2.3782 -26.8962,-8.6628 -22.4061,-35.5655 -45.4989,-70.6909 -68.1625,-106.089 -7.1475,-11.1547 -13.7819,-22.6249 -20.6482,-33.9685 -1.174,-2.5886 -3.5286,-3.4836 -5.7694,-2.4834 -2.228,1.0002 -3.3698,3.2024 -1.3415,5.6793 z"
         style="fill:#ffffff;fill-rule:evenodd"
         id="path14" />
      <path
         inkscape:connector-curvature="0"
         d="m 2818.5675,-597.5763 c 0,50.1265 0.06,94.535 -0.069,138.9607 -0.021,6.027 2.5306,14.0523 -5.4969,16.5829 -11.7278,3.6875 -17.4822,-0.4786 -17.3384,-14.0309 0.528,-50.3389 0.015,-100.6843 0.4378,-151.0298 0.06,-7.3234 -5.338,-18.4159 6.437,-21.1267 12.0927,-2.786 22.9341,-0.938 30.8327,12.215 21.9574,36.5871 45.3401,72.3114 68.1539,108.377 6.4069,10.1159 12.7817,20.2382 18.9074,29.9462 5.6493,-0.6889 5.2329,-4.1189 4.999,-7.2011 -3.3484,-42.6377 -0.6139,-85.3506 -1.5991,-128.012 -0.1738,-7.9717 -0.674,-15.6664 10.7834,-16.0978 13.0092,-0.498 11.7901,8.1927 11.7729,16.7353 -0.097,50.9743 0.047,101.955 -0.1739,152.9379 -0.03,6.4048 3.5523,15.7565 -6.2545,17.596 -9.7295,1.8266 -20.1395,2.9234 -26.9542,-8.4417 -11.466,-19.1113 -23.7926,-37.7076 -35.8467,-56.4647 -18.506,-28.8109 -37.0958,-57.583 -58.5917,-90.9463 z"
         style="fill:#ffffff;fill-rule:evenodd"
         id="path16" />
      <path
         inkscape:connector-curvature="0"
         d="m 2095.4918,-479.0792 c 0,-43.8118 0.039,-87.6236 -0.03,-131.4269 -0.015,-8.9719 -1.9231,-18.9675 12.2279,-18.4073 13.0929,0.5215 10.4572,10.2382 10.4722,18.1948 0.054,49.7337 0.1739,99.4653 -0.1502,149.199 -0.039,6.9285 4.4516,17.0894 -5.9519,19.7316 -10.586,2.7023 -21.262,1.9983 -28.4331,-9.517 -18.2034,-29.1908 -37.0185,-58.0016 -55.5332,-87.0034 -11.5775,-18.1348 -23.0564,-36.336 -36.1171,-56.9327 -4.9903,10.9187 -2.0605,19.5965 -2.1356,27.7291 -0.3413,36.9735 -0.2962,73.962 0.1889,110.9355 0.1137,8.5726 0.2876,15.3938 -10.85,15.72 -12.6679,0.3713 -11.76,-7.4737 -11.6827,-16.5893 0.4164,-50.3626 0.1202,-100.7381 0.4765,-151.1071 0.054,-7.2676 -5.6042,-18.285 7.4737,-20.0128 10.5237,-1.3844 20.6717,-1.6506 28.0166,10.4807 23.3891,38.7142 48.0574,76.6493 72.2728,114.8806 5.3467,8.4503 10.7834,16.8404 16.173,25.2607 1.2041,-0.3778 2.3932,-0.7577 3.5823,-1.1355 z"
         style="fill:#ffffff;fill-rule:evenodd"
         id="path18" />
      <path
         inkscape:connector-curvature="0"
         d="m 2578.3364,-567.57 c -14.0244,41.0323 -35.0439,79.0597 -51.3091,119.1368 -2.3546,5.7931 -7.3278,11.7214 -14.1897,3.1895 -18.5877,-45.7886 -40.2146,-90.2508 -59.0683,-135.9171 -1.7708,-4.2778 -2.9599,-11.3737 -9.7381,-9.1157 -5.3982,1.8008 -2.3246,7.8515 -2.2773,11.9403 0.3777,39.4118 0.4013,78.8235 0.1051,118.2353 -0.054,6.0356 3.9215,15.8188 -7.5788,15.9476 -10.3284,0.1202 -9.2681,-8.7379 -9.2981,-15.5162 -0.1825,-50.9206 -0.2061,-101.8498 0,-152.7705 0.03,-6.1794 -0.7212,-13.9858 8.403,-14.3485 7.126,-0.2876 14.7435,-1.8931 19.2487,7.7141 12.3417,26.3124 24.5181,52.6785 35.793,79.4674 4.1254,9.7918 5.5119,21.0216 14.0159,28.6992 5.7694,6.5787 7.9501,14.8551 10.7597,22.8439 2.8848,5.9219 6.7847,8.6392 10.4787,1.2041 5.0289,-10.1158 10.3884,-20.2467 12.0626,-31.7041 15.0375,-33.0134 30.9314,-65.6856 44.7047,-99.2227 5.6493,-13.7583 15.3938,-11.4037 24.9645,-10.7297 10.616,0.7512 7.7527,9.8068 7.7613,16.3639 0.084,51.6483 0.024,103.2815 0.054,154.9298 0.01,7.6776 1.4831,15.954 -10.3284,16.3468 -12.3738,0.4164 -12.7366,-7.5788 -12.4039,-16.5679 1.4767,-40.691 -2.9684,-81.4958 2.5456,-122.1052 2.4834,-2.1185 1.5969,-4.7306 0.06,-6.4434 -2.962,-3.3162 -5.6557,-0.8092 -7.5488,1.5454 -3.93,4.9066 -5.1577,11.101 -7.2161,16.8769 z"
         style="fill:#ffffff;fill-rule:evenodd"
         id="path20" />
      <path
         inkscape:connector-curvature="0"
         d="m 1832.3589,-534.5308 c 0,-25.5247 0.5688,-51.058 -0.2426,-76.5527 -0.4078,-12.8503 2.7345,-18.6799 16.9156,-17.9995 21.6484,1.0453 43.374,0.3799 65.0589,0.176 7.7162,-0.0773 14.2884,0.4078 14.0544,10.6375 -0.2125,9.927 -6.6344,10.7834 -14.3807,10.631 -14.6726,-0.2791 -29.386,0.4013 -44.0157,-0.4765 -10.6139,-0.6375 -15.1127,2.3309 -14.7199,13.6896 2.0541,59.0618 -10.88,46.6429 47.4392,48.1346 2.5435,0.0601 5.1106,-0.1352 7.6476,-0.3863 7.3148,-0.7041 12.8203,1.0603 13.0778,9.708 0.2555,8.3902 -4.6726,10.9487 -12.2364,10.8285 -13.4042,-0.1975 -26.8276,0.3778 -40.1931,-0.3499 -11.305,-0.6117 -15.5977,2.9534 -15.8789,15.0461 -1.1504,49.9891 -1.5432,49.9891 47.7268,49.9741 6.3834,0 12.7667,0.015 19.15,-0.0901 7.3363,-0.1202 10.3048,3.8162 10.2211,10.7211 -0.075,6.0957 -3.05,9.678 -9.2295,9.6995 -26.8039,0.1073 -53.6014,0.1824 -80.3989,0 -10.1095,-0.0665 -10.0558,-7.5102 -10.0172,-14.9152 0.099,-26.1536 0.037,-52.3158 0.022,-78.4758 z"
         style="fill:#ffffff;fill-rule:evenodd"
         id="path22" />
      <path
         inkscape:connector-curvature="0"
         d="m 246.5621,-537.4563 c -0.0214,-24.8508 0.5001,-49.7251 -0.2489,-74.5523 -0.3628,-12.024 2.6958,-17.5681 15.8638,-17.0529 21.6248,0.8478 43.3182,0.2575 64.9816,0.2425 7.1023,0 14.6812,-0.9229 14.8722,9.7446 0.2104,11.2985 -7.3449,11.496 -15.5526,11.3736 -14.6533,-0.2275 -29.3281,0.2125 -43.9557,-0.4078 -9.7381,-0.4014 -13.2066,2.8697 -13.7132,13.0156 -2.4082,48.8988 -2.7108,48.8838 44.9924,48.8387 3.8248,-0.006 7.6475,-0.0687 11.4724,-0.0902 6.4133,-0.045 11.4487,1.6807 11.599,9.3582 0.1524,8.4267 -4.8766,10.835 -12.3352,10.7534 -12.7431,-0.1288 -25.5398,0.6804 -38.2141,-0.2662 -13.1294,-0.9916 -17.6583,3.1037 -17.5681,17.0058 0.3176,48.008 -0.234,48.0144 47.7332,48.023 7.0123,0 14.0245,-0.1223 21.0367,0.0666 6.4048,0.1738 8.7293,4.2562 8.798,10.1008 0.0751,5.9455 -2.4469,10.1094 -8.7529,10.1395 -27.4028,0.1223 -54.8056,0.3177 -82.1934,-0.2039 -10.382,-0.2039 -8.7765,-8.9053 -8.7851,-15.7952 -0.0301,-26.7675 -0.006,-53.5263 -0.0301,-80.2938 z"
         style="fill:#ffffff;fill-rule:evenodd"
         id="path24" />
      <path
         inkscape:connector-curvature="0"
         d="m 1333.8972,-535.5117 c 0.01,-25.5311 0.5302,-51.073 -0.2189,-76.5677 -0.3627,-12.1828 2.9749,-17.4457 16.0141,-16.9456 21.6634,0.8263 43.3804,0.2275 65.0825,0.1974 7.3513,-0.009 14.6361,0.0902 14.7864,10.2833 0.1373,9.8798 -6.4284,10.9938 -14.2048,10.865 -15.3101,-0.2576 -30.6288,0.015 -45.9303,-0.4915 -8.8366,-0.2962 -13.4191,2.7623 -12.5842,12.0454 0.06,0.6375 0.051,1.2814 0.021,1.9082 -2.1507,47.9908 -2.1507,47.9908 45.75,47.9693 2.552,0 5.1041,0.0301 7.6561,-0.0601 7.5789,-0.2962 14.6877,0.2791 14.2262,10.4937 -0.3928,8.6391 -6.5422,9.6994 -13.5458,9.6093 -12.7666,-0.1739 -25.5633,0.4615 -38.2828,-0.2962 -11.0474,-0.6504 -15.7951,2.1356 -16.0677,14.5911 -1.099,50.4828 -1.539,50.4763 49.1327,50.4441 6.3919,-0.006 12.7752,-0.1202 19.15,0.0687 6.3683,0.1824 8.798,4.1425 8.8817,10.0558 0.084,6.012 -2.5371,10.0622 -8.798,10.0944 -27.4415,0.1588 -54.8743,0.2254 -82.3071,-0.0472 -9.223,-0.0816 -8.8217,-7.1925 -8.8066,-13.8184 0.084,-26.7975 0.039,-53.6015 0.045,-80.399 z"
         style="fill:#ffffff;fill-rule:evenodd"
         id="path26" />
      <path
         inkscape:connector-curvature="0"
         d="m 2661.7317,-537.3962 c 0.01,-24.8894 0.5752,-49.8002 -0.2361,-74.6596 -0.4078,-12.1227 2.5821,-17.5209 15.7802,-16.9993 21.6634,0.8629 43.3868,0.234 65.0888,0.1825 7.3664,-0.0151 14.6662,0.0601 14.7049,10.2897 0.037,9.8282 -6.6495,11.0173 -14.3636,10.9036 -15.3036,-0.234 -30.6438,0.03 -45.9239,-0.6804 -9.1392,-0.425 -13.2066,2.9598 -12.5176,12.0304 0.039,0.6439 0.045,1.2793 0.024,1.9167 -2.2644,48.1798 -2.2644,48.1798 45.5826,48.1561 3.8248,0 7.6561,-0.0901 11.4788,0.009 5.997,0.1589 9.6158,2.9985 9.8068,9.2831 0.1953,7.0272 -3.2196,10.6761 -10.3584,10.6697 -14.0395,-0.0151 -28.1004,0.4979 -42.1076,-0.2061 -10.631,-0.5302 -14.3271,2.992 -14.7049,14.0394 -1.6892,51.0345 -2.0218,51.028 48.4438,50.9894 6.3833,0 12.7602,-0.009 19.1435,0.0451 6.2846,0.0536 9.238,3.5672 9.5471,9.5556 0.3026,5.8918 -2.0369,10.4722 -8.328,10.5323 -27.4349,0.2962 -54.8742,0.3713 -82.3006,0.1073 -9.1007,-0.0837 -8.8281,-7.1861 -8.8066,-13.842 0.099,-27.4328 0.039,-54.8807 0.047,-82.3221 z"
         style="fill:#ffffff;fill-rule:evenodd"
         id="path28" />
      <path
         inkscape:connector-curvature="0"
         d="m 115.704,-594.0713 c -11.6398,15.5162 -19.3024,32.0519 -21.3307,52.1097 -6.1944,61.1289 41.2147,99.285 98.8063,78.6347 5.2543,-1.8781 12.8954,-11.3414 16.5357,0.6976 2.6357,8.6928 -1.9983,15.0375 -11.6742,18.6949 -40.7918,15.4153 -86.7307,4.0137 -110.4911,-28.2957 -25.1448,-34.181 -23.4041,-89.9782 3.8463,-122.9466 26.9349,-31.8629 62.0303,-38.1389 100.9054,-31.7943 6.0185,0.9766 12.7796,3.1273 13.9687,10.7362 0.7963,5.1191 0.5537,10.4722 -6.9951,10.4271 l 0.2039,0.0236 c -18.4524,-10.148 -37.7462,-7.6475 -57.1151,-3.7261 l 0.3778,-0.2125 c -9.8497,3.7562 -21.1182,5.0955 -27.0379,15.6514 z"
         style="fill:#ffffff;fill-rule:evenodd"
         id="path30" />
      <path
         inkscape:connector-curvature="0"
         d="m 1750.9983,-524.4965 c 0.03,22.9426 -0.1738,45.8938 0.1353,68.8214 0.1137,8.7594 -1.1119,14.9989 -12.024,14.9152 -11.3866,-0.0901 -11.3565,-7.2376 -11.3351,-15.4839 0.1524,-43.9772 -0.7254,-87.9714 0.4851,-131.9185 0.4615,-16.643 -5.1856,-21.5561 -20.6417,-19.7252 -8.1777,0.9551 -16.5507,0.1524 -24.8357,0.0923 -7.6175,-0.0623 -9.5256,-4.8916 -9.5557,-11.4123 -0.015,-6.2696 2.9234,-9.502 9.208,-9.5106 37.6023,-0.015 75.2047,-0.0601 112.7985,0.0537 5.9605,0.0236 9.4355,3.2796 9.5492,9.5256 0.1052,6.6645 -2.3846,11.2298 -9.7445,11.3436 -8.9204,0.1352 -17.9545,0.8778 -26.746,-0.1911 -13.2796,-1.6119 -18.3,2.5671 -17.6046,16.583 1.099,22.2536 0.2876,44.5995 0.3112,66.9068 z"
         style="fill:#ffffff;fill-rule:evenodd"
         id="path32" />
      <path
         inkscape:connector-curvature="0"
         d="m 3029.0733,-524.108 c 0,-22.9126 -0.47,-45.8337 0.1975,-68.7313 0.3413,-11.3951 -2.7194,-16.6129 -15.0611,-15.1963 -9.4355,1.0818 -19.0727,0.3563 -28.6134,0.3777 -7.2011,0.0237 -10.133,-3.975 -10.3069,-10.8048 -0.1803,-7.1475 3.1574,-10.5087 10.2833,-10.5022 36.2781,0.0536 72.5476,0.03 108.8321,0.0751 6.6022,0.009 11.0624,2.5756 11.1676,9.957 0.1137,7.9674 -3.8163,11.7214 -11.7429,11.3286 -0.6439,-0.03 -1.2814,-0.0601 -1.9167,-0.03 -40.1158,2.4447 -40.1158,2.4447 -40.1243,43.477 0,35.6341 -0.1589,71.2747 0.1073,106.9088 0.06,9.2295 -0.5753,16.8405 -12.6078,16.4091 -11.7214,-0.4164 -10.2361,-8.8001 -10.2211,-16.4477 0.03,-22.2686 0.01,-44.5459 0.01,-66.821 z"
         style="fill:#ffffff;fill-rule:evenodd"
         id="path34" />
      <path
         inkscape:connector-curvature="0"
         d="m 613.7643,-524.2711 c 0.015,-22.9727 -0.4916,-45.969 0.2275,-68.9202 0.3713,-11.7449 -3.2625,-16.409 -15.3638,-14.9173 -8.813,1.0839 -17.8385,0.3026 -26.7739,0.5538 -7.8901,0.2275 -11.9854,-3.1659 -11.7815,-11.2986 0.1889,-7.2311 4.1876,-10.1373 11.0324,-10.1309 36.3747,0.0687 72.7579,0.1138 109.1261,0.1074 7.0573,0 10.601,3.0736 10.4572,10.3734 -0.1202,6.9736 -3.2325,10.7512 -10.367,10.7448 -9.5772,-0.0151 -19.2166,0.6503 -28.6971,-0.2962 -12.0927,-1.2192 -15.3552,3.6574 -15.22,15.2414 0.5538,44.6747 0.3027,89.3494 0.2211,134.024 -0.015,7.8515 2.8611,17.5059 -10.5859,17.9459 -14.3872,0.4701 -12.3052,-9.4569 -12.2966,-18.3322 0.015,-21.6999 0,-43.3933 0.0215,-65.0953 z"
         style="fill:#ffffff;fill-rule:evenodd"
         id="path36" />
      <path
         inkscape:connector-curvature="0"
         d="m 2364.5981,-628.8426 c 3.8162,0 7.6411,-0.1223 11.4487,0.0301 6.6345,0.2575 15.0697,-2.5456 17.0444,7.3813 1.8781,9.4505 -4.4129,11.3436 -12.288,12.7366 -7.5874,1.348 -6.0893,8.519 -6.0957,14.091 -0.045,40.0793 0.075,80.1565 -0.1288,120.2357 -0.03,7.7313 0.3263,13.9923 10.5022,14.076 6.452,0.0451 8.5941,4.7327 8.2164,10.4786 -0.5087,7.5874 -5.9004,8.8817 -12.1614,8.8452 -11.4488,-0.03 -22.8976,-0.0773 -34.3549,-0.009 -6.0571,0.0387 -11.9103,-0.4228 -12.8268,-8.0339 -0.7855,-6.6258 1.7794,-11.35 9.2166,-11.5239 7.9888,-0.1888 8.9568,-5.2929 8.9418,-11.6161 -0.075,-41.3564 -0.1138,-82.6999 -0.045,-124.0499 0.015,-6.9285 -0.6353,-12.7065 -9.6007,-13.2582 -7.4523,-0.455 -9.4269,-5.6793 -8.4353,-12.1463 0.9916,-6.4971 6.0335,-7.3514 11.4788,-7.3063 6.3597,0.0451 12.7195,0.006 19.0878,0.006 z"
         style="fill:#ffffff;fill-rule:evenodd"
         id="path38" />
      <path
         inkscape:connector-curvature="0"
         d="m 2502.4384,-510.9056 c -6.5722,-2.1271 -10.8886,-6.3597 -12.273,-13.2432 -6.1794,-30.7189 -26.5485,-55.5632 -35.353,-85.2219 -1.1826,-3.9987 -5.3316,-7.0272 -7.0058,-10.9787 -3.095,-7.2934 -8.9804,-2.8246 -13.3333,-3.3698 -6.9435,-0.8779 -5.6943,5.3531 -5.7007,9.4419 -0.099,52.2235 -0.099,104.4406 0,156.6555 0.01,4.194 -1.1591,10.2897 4.9667,10.6911 7.9266,0.5151 6.3683,-6.5572 6.291,-11.1376 -0.7405,-43.0091 2.5757,-86.1083 -3.0285,-129.0101 -0.689,-5.2715 -3.2926,-12.2451 4.4988,-14.5245 4.9667,-1.4596 8.2764,2.5756 10.1008,6.8984 20.4593,48.521 40.8499,97.0807 61.1804,145.6553 0.455,1.0818 0.054,2.5284 0.054,3.7927 -19.8003,-33.4299 -32.2708,-70.3046 -49.1864,-105.0909 -5.4754,-11.2599 -10.1094,-22.9062 -19.1735,-33.8763 0,21.6848 0.01,43.3718 0,65.0502 0,19.7553 0.1373,39.5105 -0.069,59.2572 -0.097,8.285 3.6123,19.4827 -11.2513,18.901 -14.4537,-0.5774 -10.5774,-11.76 -10.6224,-19.9313 -0.1975,-49.7015 -0.1825,-99.403 -0.015,-149.098 0.03,-7.6411 -3.4835,-17.7935 9.721,-18.7851 11.1246,-0.835 21.4358,-0.8865 26.7374,12.3481 10.4035,25.9733 21.936,51.4894 32.4446,77.4241 3.7798,9.3281 11.29,17.2483 11.0174,28.1519 z"
         style="fill:#ffffff;fill-rule:evenodd"
         id="path40" />
      <path
         inkscape:connector-curvature="0"
         d="m 1494.3496,520.0206 c 8.4203,-54.7605 28.0553,-106.31 45.5011,-158.4884 1.7858,-5.3617 2.7173,-11.2449 8.6992,-13.9923 -13.9471,45.2714 -27.523,90.6651 -42.0689,135.7498 -3.9537,12.2579 -0.9251,26.9027 -12.1314,36.7309 z"
         style="fill:#ffffff;fill-rule:evenodd"
         id="path42" />
      <path
         inkscape:connector-curvature="0"
         d="m 199.2753,-605.8098 c 10.367,-16.1665 -1.833,-18.3473 -12.9019,-19.4526 -33.726,-3.3913 -65.2863,1.1053 -89.9031,27.7977 -1.1504,1.2556 -3.3612,1.5518 -5.0719,2.2945 23.329,-40.4807 80.6866,-41.7599 110.2401,-31.8329 9.4118,3.1573 9.6394,11.2963 8.3279,18.9074 -1.3028,7.6475 -5.9583,6.8598 -10.6911,2.2859 z"
         style="fill:#ffffff;fill-rule:evenodd"
         id="path44" />
      <path
         inkscape:connector-curvature="0"
         d="m 425.0956,255.5419 c 2.0133,2.3245 4.8916,4.3164 5.8832,7.0187 15.3938,41.9123 31.6204,83.5885 40.1995,127.6557 -17.4457,-44.181 -33.726,-88.7569 -46.0827,-134.6744 z"
         style="fill:#ffffff;fill-rule:evenodd"
         id="path46" />
      <path
         inkscape:connector-curvature="0"
         d="m 2535.7437,-518.566 c 1.9832,13.5157 -6.3919,23.9879 -10.7448,35.5804 -1.2341,3.2711 -4.8465,6.7912 -9.019,4.9582 -4.0889,-1.7944 -3.1338,-6.2996 -2.7775,-10.0386 3.1574,1.3007 6.1258,4.9517 8.7444,-1.3329 4.1189,-9.9206 9.1543,-19.4612 13.7969,-29.1671 z"
         style="fill:#ffffff;fill-rule:evenodd"
         id="path48" />
      <path
         inkscape:connector-curvature="0"
         d="m 2578.3364,-567.57 c -1.4166,-6.6859 1.4295,-12.4168 4.5503,-17.8321 2.6122,-4.5567 4.179,-13.8183 10.2747,-11.0388 7.42,3.3698 5.1256,11.1762 -0.1202,16.892 -12.5327,-5.3831 -8.0489,10.133 -14.7048,11.9789 z"
         style="fill:#ffffff;fill-rule:evenodd"
         id="path50" />
      <path
         inkscape:connector-curvature="0"
         d="m 142.3598,-609.508 c 19.5578,-6.7225 38.8817,-9.766 57.1237,3.7196 -18.7786,-5.3401 -37.8449,-6.0656 -57.1237,-3.7196 z"
         style="fill:#ffffff;fill-rule:evenodd"
         id="path52" />
      <path
         inkscape:connector-curvature="0"
         d="m 195.9334,761.1703 c 5.4733,-15.0761 15.6664,-25.4045 30.8713,-30.6974 -10.2833,10.236 -20.5816,20.4657 -30.8713,30.6974 z"
         style="fill:#ffffff;fill-rule:evenodd"
         id="path54" />
      <path
         inkscape:connector-curvature="0"
         d="m 115.704,-594.0713 c 4.0352,-13.8119 15.1663,-15.3638 27.0379,-15.6578 -9.0105,5.2243 -18.0274,10.4421 -27.0379,15.6578 z"
         style="fill:#ffffff;fill-rule:evenodd"
         id="path56" />
      <path
         inkscape:connector-curvature="0"
         d="m 2474.2951,661.0419 c 1.3264,7.9051 -1.3479,14.3034 -7.3149,19.4504 -0.5902,-7.6239 2.2494,-13.9471 7.3149,-19.4504 z"
         style="fill:#ffffff;fill-rule:evenodd"
         id="path58" />
      <path
         inkscape:connector-curvature="0"
         d="m 402.5415,-587.1793 c -3.3698,-2.7559 -5.0655,-7.0122 -1.2342,-9.268 5.1642,-3.0286 7.7012,1.0216 8.3451,6.0721 -2.3696,1.0667 -4.7413,2.1356 -7.1109,3.1959 z"
         style="fill:#ffffff;fill-rule:evenodd"
         id="path60" />
      <path
         inkscape:connector-curvature="0"
         d="m 797.4211,-522.2557 c -3.3011,-0.6224 -6.276,-2.4683 -5.602,-5.8617 1.0281,-5.2157 5.2844,-5.9584 9.9484,-4.853 -2.7409,3.0436 -5.3444,6.1472 -4.3464,10.7147 z"
         style="fill:#ffffff;fill-rule:evenodd"
         id="path62" />
      <path
         inkscape:connector-curvature="0"
         d="m 1820.9423,176.1625 c -69.8817,0.009 -139.7549,0.4099 -209.6366,0.9315 -7.5037,0.0537 -12.3116,-1.9983 -13.5007,-9.8433 -1.393,-24.1703 9.5857,-45.5762 15.6428,-68.0273 3.4836,-12.8718 8.4503,-25.3873 11.3972,-38.4652 4.7006,-15.8853 11.9554,-30.9314 15.3166,-47.2482 9.0942,-32.0303 20.9594,-63.1571 30.4549,-95.0501 4.4902,-12.024 8.8667,-24.0952 11.3801,-36.7481 8.5877,-19.8454 9.648,-41.5389 15.2887,-62.0883 2.2408,-8.1176 1.6355,-17.553 9.4955,-23.4663 8.5641,1.129 1.8631,-21.2019 16.5142,-10.7512 8.6392,9.4483 7.375,22.3137 11.5476,33.3075 1.0903,11.7664 4.8679,22.9361 7.7613,34.3012 2.846,14.2584 6.0871,28.403 11.335,42.0175 3.3247,16.9843 9.8733,32.9834 15.2113,49.3602 4.0438,11.5625 5.6643,23.8892 11.1161,35.0139 2.6658,8.9868 4.2627,18.3085 8.1627,26.9262 3.2861,12.7731 7.9652,25.1234 11.4488,37.8214 1.6656,8.3901 5.3831,16.0978 8.0639,24.1531 8.094,24.868 14.7263,50.1802 23.5565,74.8184 2.3395,6.5358 5.1491,13.2067 2.5885,20.4529 1.7493,10.6159 -3.6724,12.5842 -13.1444,12.5842 z m 347.6658,342.244 c -28.2742,-107.3767 -65.4516,-211.9074 -103.1828,-316.1741 -52.7085,-145.6532 -107.0591,-290.716 -160.6004,-436.0665 -16.9607,-46.0377 -33.4835,-92.2277 -50.4978,-138.2353 -3.211,-8.6306 -5.2544,-18.2313 -18.6499,-18.0725 -75.2649,0.9315 -150.5447,1.4145 -225.8182,1.5583 -10.7297,0.0236 -16.5678,4.0588 -19.8153,13.8506 -4.9968,15.1126 -10.2897,30.1501 -15.7566,45.1061 -31.9853,87.3425 -64.3247,174.5541 -96.0203,262.0103 -53.1636,146.7306 -105.9237,293.5943 -158.8662,440.4065 -17.5294,48.5897 -35.3615,97.0656 -52.5197,145.7841 -8.4202,23.8956 -7.86,24.063 16.6516,24.1167 58.0617,0.1352 116.1448,-0.7277 174.1549,0.998 19.7917,0.5924 31.6419,-4.5503 36.6622,-23.6681 2.6658,-5.0053 4.5954,-10.0107 5.7545,-15.8102 10.8199,-53.8376 28.4717,-105.6296 48.4458,-156.6726 4.619,-10.2146 12.7216,-11.8867 23.3204,-11.8652 96.3466,0.2662 192.6845,0.3649 289.0139,-0.6589 15.7201,-0.1739 22.4361,4.634 27.0015,19.21 17.7033,56.5699 36.7631,112.7084 54.7841,169.1882 4.2326,13.2582 10.4399,19.1264 25.6835,18.9611 60.5901,-0.6375 121.2038,0.3627 181.8088,0.7705 24.4666,0.1524 24.898,-0.2425 18.446,-24.737 z"
         style="fill:#ffffff;fill-rule:evenodd"
         id="path64" />
      <path
         inkscape:connector-curvature="0"
         d="m 1795.3575,45.139 c -4.0738,-12.3116 -10.2361,-24.0329 -10.5172,-37.4049 -3.0221,-9.268 -1.9618,-19.8904 -9.2681,-27.7269 -6.4971,-10.2682 -8.6842,-21.7921 -9.8669,-33.6208 -4.179,-17.3771 -8.2378,-34.7928 -16.9607,-50.6416 -4.7177,-13.2346 -10.9186,-26.1064 -9.927,-40.7211 -1.2942,-8.6477 -3.0972,-17.2483 -1.6655,-26.0634 0.7126,-0.8479 1.423,-1.6871 2.1356,-2.5435 4.4366,3.2024 6.261,7.9738 7.3299,12.9856 15.6363,72.4187 40.2596,142.2232 61.6053,212.985 -1.2492,1.3693 -2.8182,1.9896 -4.6491,1.9746 -5.5119,-0.6053 -3.5222,-7.8815 -8.2163,-9.223 z"
         style="fill:#ffffff;fill-rule:evenodd"
         id="path66" />
      <path
         inkscape:connector-curvature="0"
         d="m 1674.6066,-80.4691 c -7.5874,32.406 -20.0128,63.2473 -30.9936,94.535 -2.8075,2.1572 -1.348,6.9586 -5.2393,8.4267 -0.8393,-0.249 -1.6656,-0.5001 -2.4898,-0.7491 9.6694,-50.2402 25.6985,-98.5938 44.606,-145.9557 7.3899,-18.5147 8.3665,-37.9823 13.0843,-56.8211 2.1506,-8.6005 1.0367,-19.7402 13.2045,-22.8074 -7.0874,29.2509 -14.1661,58.5017 -21.2534,87.7439 -4.9839,11.4638 -8.8968,23.2474 -10.9187,35.6277 z"
         style="fill:#ffffff;fill-rule:evenodd"
         id="path68" />
      <path
         inkscape:connector-curvature="0"
         d="m 1628.6935,61.4966 c -7.9738,35.9303 -20.1802,70.6244 -30.8864,105.7584 -4.9366,0.5452 -1.7707,9.8733 -8.154,8.0103 -3.2046,-0.923 -3.7863,-4.9903 -2.8483,-8.2464 13.7218,-47.4821 28.2893,-94.6938 45.2649,-141.1393 0.5903,-1.6291 2.507,-2.7645 3.8099,-4.1361 v 0.0086 c 4.8143,14.546 -7.6411,25.9862 -7.1861,39.7445 z"
         style="fill:#ffffff;fill-rule:evenodd"
         id="path70" />
      <path
         inkscape:connector-curvature="0"
         d="m 1804.3937,52.3874 h 3.8313 c 14.516,40.2059 26.9628,80.9806 39.0641,125.4063 -11.0624,-3.6123 -6.2245,-13.1981 -13.1981,-14.2133 -12.1377,-30.9465 -22.391,-62.4918 -30.0621,-94.8613 -1.8609,-5.4818 -2.8461,-10.9572 0.3648,-16.3317 z"
         style="fill:#ffffff;fill-rule:evenodd"
         id="path72" />
      <path
         inkscape:connector-curvature="0"
         d="m 1830.1782,185.701 h -224.3114 c 0,-0.6504 0,-1.2793 -0.01,-1.9232 h 224.6742 c -0.1224,0.6439 -0.2426,1.2728 -0.3563,1.9232 z"
         style="fill:#ffffff;fill-rule:evenodd"
         id="path74" />
      <path
         inkscape:connector-curvature="0"
         d="m 1729.6955,-180.7242 c -4.5052,-10.8435 -5.4839,-22.3438 -6.4069,-33.8763 4.4902,-5.9969 6.5872,-3.5672 8.7164,2.0584 4.7543,12.5928 8.7895,25.2371 7.2827,38.9589 -6.9135,2.6036 -4.3915,-7.4436 -9.5922,-7.141 z"
         style="fill:#ffffff;fill-rule:evenodd"
         id="path76" />
      <path
         inkscape:connector-curvature="0"
         d="m 2168.6897,977.4801 c -21.7471,55.8208 -65.3529,86.3272 -121.545,100.6758 -41.2448,10.5172 -83.2301,10.3434 -125.4064,6.892 -13.3333,-1.0839 -18.0897,-5.4905 -17.8235,-19.9377 1.0217,-56.0698 0.4164,-112.1718 0.4164,-168.2631 h 0.4851 c 0,-56.7287 0.1438,-113.451 -0.1374,-170.1733 -0.045,-9.1457 0.1052,-16.0893 11.9403,-17.2483 53.814,-5.2994 107.1514,-5.074 158.2931,15.1963 63.3997,25.132 97.8061,72.7815 105.9688,140.0662 4.6791,38.5639 1.9618,76.4925 -12.1914,112.7921 z m 61.3627,-186.4515 c -25.911,-61.4315 -70.6222,-102.2212 -135.1208,-119.8794 -77.7632,-21.2921 -156.9581,-25.6986 -237.1231,-19.0126 -14.795,1.2255 -19.0513,6.1944 -18.8989,21.0495 0.7877,74.6209 0.3563,149.259 0.3563,223.8864 h 1.1054 c 0,73.9856 0.6203,147.9948 -0.4636,221.9654 -0.2554,17.6346 6.1494,21.5196 21.8759,21.8372 52.3072,1.0217 104.6294,0.9766 156.8379,-1.9618 61.6739,-3.4685 117.6686,-22.9876 162.6009,-67.0871 70.6973,-69.3816 90.1285,-182.9228 48.83,-280.7976 z"
         style="fill:#ffffff;fill-rule:evenodd"
         id="path78" />
      <path
         inkscape:connector-curvature="0"
         d="m 3115.8557,1052.0688 c -79.2271,75.1575 -196.7734,52.4274 -241.3258,-47.0979 -34.0737,-76.1063 -32.7945,-152.3713 3.8077,-227.2112 28.4416,-58.1454 76.5978,-82.9575 140.5812,-77.6967 63.1507,5.1792 109.6863,34.0523 134.0391,94.5286 13.8935,34.4837 15.4775,70.6609 16.1494,112.1932 -0.219,51.2405 -9.9785,104.2431 -53.2516,145.284 z m 113.1097,-228.5977 c -20.9293,-107.5206 -92.0903,-172.118 -201.0962,-179.2418 -70.957,-4.6512 -136.0223,12.2043 -183.9444,69.3194 -80.3776,95.8014 -80.0213,270.9779 -0.2276,367.1184 18.6113,22.4361 41.1311,41.9874 68.3214,50.7017 35.6405,11.4102 73.0755,17.7785 111.1329,17.8858 75.7564,0.3241 134.5306,-31.2877 173.1546,-96.4131 42.4039,-71.5173 48.257,-149.214 32.6593,-229.3704 z"
         style="fill:#ffffff;fill-rule:evenodd"
         id="path80" />
      <path
         inkscape:connector-curvature="0"
         d="m 1199.7401,970.1073 c -23.1401,65.3013 -70.8884,97.2458 -135.8334,108.6646 -36.6022,6.437 -73.7345,6.0506 -110.7101,6.1858 -20.3219,0.084 -26.13,-6.306 -24.9796,-27.304 2.9685,-54.2218 1.1054,-108.4607 0.8629,-162.6825 0,-55.5096 0.1223,-111.0192 -0.1052,-166.531 -0.0451,-10.3584 2.5757,-18.2248 14.2648,-18.2785 59.8646,-0.234 120.1907,-3.8764 176.737,22.361 42.0239,19.5041 69.7916,51.9423 80.7402,96.3744 11.4939,46.6966 15.9004,93.5606 -0.9766,141.2102 z M 1075.7032,660.2026 c -62.3458,-8.579 -124.7475,-5.572 -187.207,-6.2159 -15.5763,-0.1588 -19.3689,4.7242 -19.2337,19.648 0.6976,73.9942 0.3177,148.0012 0.3177,222.0104 h -0.5989 c 0,75.9152 0.0687,151.8541 -0.0815,227.7628 -0.0151,8.9354 -0.6075,16.5228 12.1892,16.3554 61.204,-0.8092 122.5066,2.8032 183.5517,-4.3614 113.9361,-13.387 187.1855,-79.0661 207.1683,-187.7758 22.8138,-124.1722 -29.605,-264.5259 -196.1058,-287.4235 z"
         style="fill:#ffffff;fill-rule:evenodd"
         id="path82" />
      <path
         inkscape:connector-curvature="0"
         d="m 1617.3284,950.601 c -47.5293,0.1738 -95.0737,0.5151 -142.6031,1.1955 -8.3816,0.1224 -13.3032,-2.6121 -14.8551,-10.895 -2.5005,-2.3782 -3.681,-5.3831 -2.6293,-8.6091 21.2556,-64.5738 42.7666,-129.0638 67.0807,-192.5622 1.788,-4.6877 3.6639,-9.6008 8.6693,-12.1313 4.3099,-3.05 4.4988,-12.1528 12.1678,-9.7296 5.6728,1.7794 8.0875,7.4887 9.7381,13.2282 4.1725,14.561 7.2247,29.5234 15.1813,42.7451 13.4642,15.8102 14.3507,36.821 22.6872,54.7433 1.8931,7.156 4.6641,13.9858 7.8965,20.6417 5.029,14.795 9.8068,29.6672 14.986,44.4107 1.8695,6.9585 4.5568,13.6209 7.5789,20.1716 0.7641,7.9416 7.3964,15.1663 3.0435,23.7604 3.6038,8.8667 1.099,12.9856 -8.9418,13.0307 z m 140.1949,167.5075 c -15.016,-44.0393 -30.0535,-88.0937 -46.0162,-131.7897 -34.709,-95.1574 -70.6372,-189.8749 -104.8333,-285.2127 -18.2635,-50.9142 -23.6015,-55.4645 -77.6731,-49.3688 -0.6353,0.0666 -1.2792,0.3327 -1.8931,0.264 -18.7013,-2.346 -26.7352,8.0489 -32.5734,24.3206 -31.8179,88.7441 -63.6873,177.4796 -96.9583,265.6764 -19.7402,52.3308 -35.9217,105.9258 -59.1841,157.0654 -18.0275,39.6629 -15.9068,40.6245 27.2675,40.8885 0.6439,0 1.3029,-0.1138 1.9146,0.015 18.1433,3.7175 25.6707,-5.4131 31.0838,-21.8437 10.9423,-33.2795 20.2253,-67.1494 34.2111,-99.4201 4.0116,-9.2681 8.9418,-13.6445 19.8905,-13.5759 59.9397,0.3628 119.8859,0.1052 179.8256,-0.5451 11.1547,-0.1288 16.2566,3.5651 21.3156,13.9385 14.2799,29.2745 18.7336,61.674 32.1721,91.3112 15.9325,35.1254 5.2479,28.8795 47.3405,29.9913 0.9916,0 4.8229,-0.03 8.6477,0.01 22.4361,0.1739 22.8825,0.021 15.4625,-21.7235 z"
         style="fill:#ffffff;fill-rule:evenodd"
         id="path84" />
      <path
         inkscape:connector-curvature="0"
         d="m 1532.9951,727.5989 c -19.7101,56.8339 -39.474,113.6463 -59.1004,170.5124 -4.8916,14.1897 -9.3582,28.5146 -14.0223,42.7881 -1.818,2.4683 -3.6338,4.9216 -6.8598,9.283 -1.4381,-8.5168 -0.689,-15.0139 1.3629,-22.1613 19.2466,-66.982 43.2817,-132.3134 67.2374,-197.6813 1.6677,-4.5289 1.5454,-12.0691 9.429,-11.4724 0.8629,0.0537 1.3093,5.6943 1.9532,8.7315 z"
         style="fill:#ffffff;fill-rule:evenodd"
         id="path86" />
      <path
         inkscape:connector-curvature="0"
         d="m 1626.2681,937.5725 c -2.4533,-7.0659 -7.845,-13.2818 -6.1794,-21.5346 -2.0284,-7.3149 -2.5048,-15.2951 -9.0406,-20.6482 -5.3981,-14.591 -12.5606,-28.6305 -13.9471,-44.4708 -1.7729,-7.2762 -3.2797,-14.6511 -7.8364,-20.8692 -8.2851,-18.0961 -14.1747,-36.9949 -19.1887,-56.205 2.2258,-16.8855 -11.6076,-30.5687 -9.9484,-50.2338 16.1665,31.7127 23.2302,63.8933 34.8164,94.3633 13.9021,36.5936 29.9612,72.5604 37.8127,111.3283 1.5218,7.5037 2.7259,10.9272 -6.4885,8.27 z"
         style="fill:#ffffff;fill-rule:evenodd"
         id="path88" />
      <path
         inkscape:connector-curvature="0"
         d="M 1623.1172,959.5771 H 1468.591 c -0.01,-0.6353 -0.024,-1.2706 -0.024,-1.9081 h 155.3461 z"
         style="fill:#ffffff;fill-rule:evenodd"
         id="path90" />
      <path
         inkscape:connector-curvature="0"
         d="m 2589.0211,951.0303 c -47.1731,0.4164 -94.3548,0.8628 -141.5192,0.7254 -12.3117,-0.0365 -16.7268,-7.9201 -13.9923,-19.5427 2.0369,-8.6392 4.6341,-17.1431 6.98,-25.6922 -0.5902,-18.5661 10.2747,-33.565 16.2868,-49.914 14.1982,-38.6541 25.2006,-78.5209 43.2065,-115.7519 2.4533,-5.0869 3.6639,-10.9337 9.4033,-13.7282 15.0847,-17.4973 12.5026,4.8465 18.3622,8.1326 14.9624,17.7934 18.7486,40.7382 27.9866,61.1674 4.1275,9.1393 6.437,19.0642 10.2833,28.3708 5.3681,13.1745 9.0256,27.0015 15.1062,39.9205 3.6725,17.4307 12.7581,33.1036 16.4756,50.5107 1.5519,7.2998 5.2844,14.531 1.1355,22.142 3.2861,9.1908 -0.7792,13.5758 -9.7145,13.6596 z m 142.397,170.9975 c -25.3272,-76.9626 -53.4576,-152.9165 -81.0794,-229.0527 -25.6685,-70.7511 -51.4293,-141.4592 -77.1193,-212.1952 -4.6877,-12.9104 -9.6393,-26.2609 -25.9733,-27.04 -21.0044,-1.0002 -42.0775,-0.5001 -63.1271,-0.6139 -5.368,-0.03 -7.3298,4.2949 -9.8196,7.9137 -2.4619,6.4885 -3.9537,13.3269 -7.3149,19.4526 -53.2301,137.3617 -103.2278,275.906 -152.1502,414.8517 -15.3788,43.6895 -15.5312,43.0392 30.2339,44.4537 14.3786,0.44 19.9291,-4.9904 24.3141,-17.8987 11.9017,-35.0052 25.5934,-69.4138 38.2077,-104.1915 3.2174,-8.8818 7.8901,-13.2346 18.0446,-13.2282 58.6819,0.015 117.3488,-2.3696 176.063,0.2361 15.2027,0.6804 23.5779,6.671 28.0917,20.4142 7.36,22.4189 15.0225,44.7498 22.61,67.0936 16.1493,47.5895 16.1643,47.1731 65.443,47.9544 14.8787,0.2404 18.9224,-1.9167 13.5758,-18.1498 z"
         style="fill:#ffffff;fill-rule:evenodd"
         id="path92" />
      <path
         inkscape:connector-curvature="0"
         d="m 2562.7108,826.0403 c -11.6527,-30.2639 -23.3054,-60.5214 -34.9581,-90.7789 0.4164,-4.3399 0.8178,-8.6842 1.5969,-16.7031 35.8531,75.9904 61.0001,151.9227 83.8289,231.3151 -11.1826,-1.1591 -6.2245,-13.2818 -14.4387,-12.5027 -6.6859,-23.8591 -17.1881,-46.5892 -21.1654,-71.2661 -4.2326,-13.6231 -7.0251,-27.7742 -14.8636,-40.0643 z"
         style="fill:#ffffff;fill-rule:evenodd"
         id="path94" />
      <path
         inkscape:connector-curvature="0"
         d="m 2509.3905,727.1245 c -24.5717,59.1821 -41.5088,121.2961 -68.9051,179.3942 -10.7899,10.6009 -11.5991,24.6318 -12.3503,39.5878 -8.6392,-2.8547 -8.1691,-9.1543 -6.1021,-13.8356 28.9696,-66.0032 45.4387,-136.81 77.5657,-201.5426 1.3029,-2.6186 2.0069,-15.2264 9.7918,-3.6038 z"
         style="fill:#ffffff;fill-rule:evenodd"
         id="path96" />
      <path
         inkscape:connector-curvature="0"
         d="m 2444.1642,957.3449 h 148.2052 c 0,0.5001 0.01,0.9916 0.015,1.4917 h -148.1987 c 0,-0.5001 -0.015,-0.9916 -0.021,-1.4917 z"
         style="fill:#ffffff;fill-rule:evenodd"
         id="path98" />
      <path
         inkscape:connector-curvature="0"
         d="m 2291.5569,-520.955 c -4.9904,33.8248 -27.0551,54.6167 -62.9468,58.8558 -6.9285,0.8178 -14.0824,-0.1502 -20.9894,0.7878 -14.9088,2.0369 -20.777,-3.0651 -19.5965,-18.8452 1.393,-18.3859 0.3263,-36.9521 0.3349,-55.4431 0.01,-19.7617 0.4078,-39.5405 -0.161,-59.2872 -0.2876,-9.927 2.962,-14.297 13.1766,-13.2067 5.6793,0.6075 11.4638,0.1975 17.1946,0.3263 55.5869,1.2942 81.118,31.6655 72.9876,86.8123 z m 19.6329,-53.4126 c -10.9187,-34.7927 -38.579,-50.8455 -74.1509,-53.0326 -19.0362,-1.1741 -38.1561,-0.7277 -57.2224,-1.524 -10.7362,-0.4464 -14.6125,3.8335 -14.3936,14.5997 0.5366,26.0849 0.1738,52.202 0.1738,78.2934 h 0.06 c 0,16.5528 0,33.0971 -0.01,49.65 0,45.5676 0,45.3486 46.4304,45.3486 29.6672,-0.009 56.9112,-5.8832 78.3235,-28.3643 29.137,-30.5988 32.6292,-67.2246 20.7855,-104.9708 z"
         style="fill:#ffffff;fill-rule:evenodd"
         id="path100" />
      <path
         inkscape:connector-curvature="0"
         d="m 3217.4844,-461.011 c -28.3557,8.313 -55.9796,-0.1974 -70.6158,-24.2089 -19.1413,-31.3994 -19.4075,-64.7841 -1.423,-96.4282 19.6866,-34.6489 70.7145,-40.1243 97.5485,-12.1592 11.9575,12.4619 20.0429,37.0486 19.854,60.4076 -0.2876,36.922 -17.3706,64.181 -45.3637,72.3887 z m -18.4609,-171.0876 c -54.2154,0.1738 -89.6435,39.6156 -89.4911,99.624 0.1438,55.5397 35.602,94.8914 85.6147,95.0201 56.8511,-1.144 89.4331,-36.4283 91.6202,-95.9151 2.1808,-58.9846 -34.9129,-98.8879 -87.7438,-98.729 z"
         style="fill:#ffffff;fill-rule:evenodd"
         id="path102" />
      <path
         inkscape:connector-curvature="0"
         d="m 980.2431,-465.1298 c -28.3108,14.2734 -62.1355,6.8061 -79.2786,-19.8454 -19.165,-29.7961 -19.444,-61.5839 -3.9815,-92.7579 12.7344,-25.6835 35.0803,-35.7758 63.4211,-32.9597 24.8143,2.4683 43.3117,18.5211 51.5796,44.651 3.5286,11.1462 3.7347,22.5735 3.7647,34.0373 -0.7426,28.2055 -7.581,52.7987 -35.5053,66.8747 z m -2.9921,-163.7815 c -62.3608,-14.0373 -111.6481,24.048 -114.4255,88.4479 -2.1657,50.2467 22.3438,89.0832 62.8545,99.5554 63.6186,16.4541 114.0177,-26.0763 114.0112,-96.2006 -0.01,-47.128 -24.6017,-83.2923 -62.4402,-91.8027 z"
         style="fill:#ffffff;fill-rule:evenodd"
         id="path104" />
      <path
         inkscape:connector-curvature="0"
         d="m 1252.5002,-479.9635 c -21.277,20.2103 -48.7635,19.7167 -75.6662,18.0146 -7.5123,-0.4787 -5.9669,-8.3065 -5.9455,-13.9858 0.084,-19.7488 0.039,-39.4955 0.039,-59.2443 h 0.054 c 0,-19.7467 0.6353,-39.5169 -0.2425,-59.2271 -0.4937,-11.3114 3.4835,-15.1127 14.3099,-13.842 6.2931,0.7426 12.7215,0.3413 19.0813,0.5538 29.137,0.9851 55.1919,8.33 65.4451,39.3667 10.6074,32.1269 9.2144,63.4061 -17.0744,88.3641 z m 41.2813,-93.0518 c -10.4422,-35.5054 -38.1991,-51.3306 -73.4319,-54.3592 -19.6501,-1.687 -39.4955,-0.8328 -59.2357,-1.5067 -10.3283,-0.3563 -12.9169,4.6276 -12.758,14.1145 0.4614,26.1386 0.1588,52.2922 0.1588,78.4372 h 0.1202 c 0,17.2183 0.015,34.4387 0,51.6569 -0.036,43.6895 -0.045,43.5221 44.2046,43.5993 30.251,0.0601 58.0166,-5.3316 80.165,-28.667 28.7744,-30.3261 31.7407,-65.9603 20.777,-103.275 z"
         style="fill:#ffffff;fill-rule:evenodd"
         id="path106" />
      <path
         inkscape:connector-curvature="0"
         d="m 748.4709,-541.3863 c -5.527,-0.1052 -6.7697,-4.619 -6.6109,-9.6695 0.219,-7.6389 0.0601,-15.28 0.0601,-22.934 0.3413,-37.7548 1.803,-39.064 38.4051,-33.2195 14.5847,2.3331 25.0933,9.7017 27.5552,25.0118 2.4447,15.2714 -2.8933,27.7419 -16.3854,35.8294 -13.4642,8.0575 -28.5018,5.2479 -43.0241,4.9818 z m 99.8515,92.174 c -17.6281,-23.8978 -27.1924,-53.4126 -50.8991,-73.0455 -5.308,-6.3168 -0.8178,-8.6478 4.3464,-10.7083 24.6018,-14.4623 34.6103,-34.3227 29.122,-57.7654 -5.338,-22.7774 -25.0868,-37.0658 -53.0949,-37.89 -14.6361,-0.4314 -29.3109,0.3026 -43.9406,-0.3327 -10.4722,-0.455 -14.7886,2.8311 -14.6898,14.0459 0.455,53.4941 0.3112,106.9904 0.1223,160.4867 -0.0236,8.2314 1.5755,13.5995 11.305,13.5243 9.3432,-0.0772 11.9789,-4.9538 11.8201,-13.3569 -0.2812,-15.28 -0.009,-30.5687 -0.161,-45.8487 -0.2189,-21.3608 6.9822,-26.3275 27.5101,-18.7551 9.3883,3.475 16.1579,10.0322 21.2084,18.4288 9.5342,15.8102 19.4139,31.4466 28.1604,47.6818 5.4282,10.0772 13.1745,12.8482 23.6016,11.7579 5.3831,-0.5603 9.6544,-2.7023 5.5891,-8.2228 z"
         style="fill:#ffffff;fill-rule:evenodd"
         id="path108" />
      <path
         inkscape:connector-curvature="0"
         d="m 1748.7425,-104.2574 c 12.4855,14.5911 15.9089,32.2171 16.9607,50.6331 -5.6557,-16.8706 -11.3114,-33.7561 -16.9607,-50.6331 z"
         style="fill:#ffffff;fill-rule:evenodd"
         id="path110" />
      <path
         inkscape:connector-curvature="0"
         d="m 1628.6935,61.4966 c -3.2024,-14.2648 7.5424,-26.0012 7.1861,-39.7445 2.5821,-2.5585 5.1641,-5.1255 7.7377,-7.6862 -2.1722,16.6967 -8.5641,32.0605 -14.9238,47.4307 z"
         style="fill:#ffffff;fill-rule:evenodd"
         id="path112" />
      <path
         inkscape:connector-curvature="0"
         d="m 1729.6955,-180.7242 c 4.9882,-0.0236 5.9133,5.4067 9.5922,7.141 -0.1588,9.5256 -0.3091,19.0577 -0.4679,28.5983 -4.8766,-11.4402 -7.3921,-23.4964 -9.1243,-35.7393 z"
         style="fill:#ffffff;fill-rule:evenodd"
         id="path114" />
      <path
         inkscape:connector-curvature="0"
         d="m 1674.6066,-80.4691 c -0.9615,-13.2903 2.2323,-25.2993 10.9187,-35.6277 -0.9101,12.713 -5.6343,24.2541 -10.9187,35.6277 z"
         style="fill:#ffffff;fill-rule:evenodd"
         id="path116" />
      <path
         inkscape:connector-curvature="0"
         d="m 1775.5701,-19.9906 c 9.8819,6.9736 10.0021,17.1968 9.2744,27.714 -3.095,-9.238 -6.1858,-18.4674 -9.2744,-27.714 z"
         style="fill:#ffffff;fill-rule:evenodd"
         id="path118" />
      <path
         inkscape:connector-curvature="0"
         d="m 1804.3937,52.3874 c -0.1223,5.4432 -0.2361,10.8799 -0.3648,16.3317 -2.8912,-7.8514 -5.7845,-15.72 -8.6693,-23.5801 3.0136,2.4169 6.0271,4.8315 9.0341,7.2484 z"
         style="fill:#ffffff;fill-rule:evenodd"
         id="path120" />
      <path
         inkscape:connector-curvature="0"
         d="m 1611.0503,895.3854 c 9.5471,4.0288 9.517,12.2301 9.0319,20.6503 -3.0049,-6.8834 -6.0184,-13.7582 -9.0319,-20.6503 z"
         style="fill:#ffffff;fill-rule:evenodd"
         id="path122" />
      <path
         inkscape:connector-curvature="0"
         d="m 1589.2667,830.0497 c 7.7313,5.0204 8.6456,12.6057 7.8364,20.8607 -4.3378,-6.3082 -6.7246,-13.3505 -7.8364,-20.8607 z"
         style="fill:#ffffff;fill-rule:evenodd"
         id="path124" />
      <path
         inkscape:connector-curvature="0"
         d="m 2562.7108,826.0403 c 11.9639,10.7448 13.4492,25.3895 14.8636,40.0557 -6.8362,-12.6529 -11.1976,-26.2202 -14.8636,-40.0557 z"
         style="fill:#ffffff;fill-rule:evenodd"
         id="path126" />
      <path
         inkscape:connector-curvature="0"
         d="m 1621.9496,-514.0028 c -0.6289,-0.0322 -1.2642,-0.0151 -1.8996,-0.0387 -59.3644,-1.6355 -50.6265,9.912 -32.5455,-45.0911 4.0975,-12.4339 8.8452,-24.6533 15.0912,-41.9552 10.4035,28.4094 18.9525,52.0947 27.7806,75.6877 3.241,8.6241 0.1373,11.8351 -8.4267,11.3973 z m 57.2675,54.7433 c -1.9168,-7.2462 -5.263,-14.1124 -7.9889,-21.1483 -4.5589,-2.2021 -5.2929,-6.5872 -6.8383,-10.8413 -14.8701,-41.1697 -32.4146,-81.3091 -46.937,-122.6204 -2.1356,-6.0892 -4.619,-14.1596 -14.1382,-12.9255 -8.3901,1.0818 -12.5541,6.0571 -15.8252,14.1897 -10.3949,25.9111 -18.5275,52.6163 -28.682,78.5961 -11.4638,29.3259 -24.0416,58.2204 -34.679,88.5852 17.2096,5.7244 21.6183,-5.0504 25.8509,-17.1517 11.5153,-32.8395 11.6742,-32.7859 46.8769,-32.7558 51.5946,0.0601 51.5946,0.0601 65.5267,50.5729 5.7867,6.0657 13.827,5.7781 19.1285,2.1743 7.375,-5.0139 -0.8263,-11.1762 -2.2944,-16.6752 z"
         style="fill:#ffffff;fill-rule:evenodd"
         id="path128" />
      <path
         inkscape:connector-curvature="0"
         d="m -860.4188,867.9612 c -1033.1455,377.582 -1551.5448,-715.4132 -614.5548,-1281.9236 v 0 c -1591.182,435.3797 -330.8017,2231.4292 614.5548,1281.9236 z"
         style="fill:#ffffff"
         id="path142" />
      <path
         inkscape:connector-curvature="0"
         d="m -1832.678,-451.6935 c 1295.1559,-505.9869 1981.6809,860.3472 813.0882,1603.1996 v 0 c 1464.46,-477.5774 848.9972,-1923.688 -76.2629,-1923.4777 v 0 c -235.23,0.0537 -490.6703,93.582 -736.8253,320.2781 z"
         style="fill:#ffffff"
         id="path156" />
      <path
         inkscape:connector-curvature="0"
         d="m -2361.4272,573.6543 c 0,158.4949 129.3729,287.8613 287.5222,287.8613 v 0 c 158.5636,0 287.9364,-129.3664 287.9364,-287.8613 v 0 c 0,-158.4498 -129.3728,-287.8485 -287.9364,-287.8485 -158.1493,0 -287.5222,129.3987 -287.5222,287.8485 z"
         style="fill:#ffffff"
         id="path170" />
      <path
         inkscape:connector-curvature="0"
         d="m -806.0231,-215.2444 c 0,202.4291 165.2731,367.3009 367.4897,367.3009 v 0 c 202.2617,0 367.3309,-164.8718 367.3309,-367.3009 0,-202.2531 -165.0692,-367.4361 -367.3309,-367.4361 -202.2166,0 -367.4897,165.183 -367.4897,367.4361 z"
         style="fill:#ffffff"
         id="path184" />
      <path
         inkscape:connector-curvature="0"
         d="m -1474.9736,-413.9602 c -936.99,566.5018 -418.5843,1659.5034 614.5527,1281.9214 -945.3566,949.4991 -2205.7347,-846.5418 -614.5527,-1281.9214 z"
         style="fill:#ffffff;fill-rule:evenodd"
         id="path186" />
      <path
         inkscape:connector-curvature="0"
         d="M -1019.5855,1151.5083 C 149.0072,408.6559 -537.5178,-957.6783 -1832.6759,-451.6978 -618.2796,-1570.0653 817.1785,552.5146 -1019.5855,1151.5083 Z"
         style="fill:#ffffff;fill-rule:evenodd"
         id="path188" />
      <path
         inkscape:connector-curvature="0"
         d="m -2073.9029,861.5199 c 158.555,0 287.9365,-129.375 287.9365,-287.8635 0,-158.4498 -129.3815,-287.8463 -287.9365,-287.8463 -158.1471,0 -287.5307,129.3965 -287.5307,287.8463 0,158.4885 129.3836,287.8635 287.5307,287.8635 z"
         style="fill:#ffffff;fill-rule:evenodd"
         id="path190" />
      <path
         inkscape:connector-curvature="0"
         d="m -438.5355,152.0565 c 202.2616,0 367.3309,-164.8632 367.3309,-367.2987 0,-202.2617 -165.0693,-367.4361 -367.3309,-367.4361 -202.208,0 -367.4812,165.1744 -367.4812,367.4361 0,202.4355 165.2732,367.2987 367.4812,367.2987 z"
         style="fill:#ffffff;fill-rule:evenodd"
         id="path192" />
    </g>
  </g>
</svg>
